<svg width="29" height="29" viewBox="0 0 29 29" fill="none" xmlns="http://www.w3.org/2000/svg">
<g clip-path="url(#clip0_210_401)">
<path d="M0.394929 15.4535L9.02485 24.0834C9.55139 24.6099 10.4053 24.6099 10.9319 24.0834C11.4585 23.5568 11.4585 22.703 10.9319 22.1764L4.60385 15.8484L27.6516 15.8484C28.3962 15.8484 29 15.2446 29 14.5C29 13.7554 28.3962 13.1516 27.6516 13.1516L4.60385 13.1516L10.9316 6.82356C11.4583 6.29692 11.4583 5.4432 10.9316 4.91656C10.6684 4.65346 10.3232 4.52164 9.97814 4.52164C9.63305 4.52164 9.28796 4.65346 9.02464 4.91656L0.394929 13.5465C-0.131713 14.0731 -0.131713 14.9268 0.394929 15.4535Z" fill="white"/>
</g>
<defs>
<clipPath id="clip0_210_401">
<rect width="29" height="29" fill="white" transform="matrix(-1 0 0 -1 29 29)"/>
</clipPath>
</defs>
</svg>
